Fly_normalized_Motion_pl04
version=1
nRows=16
nColumns=43
inDegrees=yes
endheader
time		pelvis_tilt		pelvis_list		pelvis_rotation		pelvis_tx		pelvis_ty		pelvis_tz		hip_flexion_r		hip_adduction_r		hip_rotation_r		knee_angle_r		ankle_angle_r		subtalar_angle_r		mtp_angle_r		hip_flexion_l		hip_adduction_l		hip_rotation_l		knee_angle_l		ankle_angle_l		subtalar_angle_l		mtp_angle_l		lumbar_extension		lumbar_bending		lumbar_rotation		neck_flexion		neck_lateral_bending		neck_rotation		arm_flex_r		arm_add_r		arm_rot_r		elbow_flex_r		pro_sup_r		wrist_flex_r		wrist_dev_r		hand_finger_flex_r		arm_flex_l		arm_add_l		arm_rot_l		elbow_flex_l		pro_sup_l		wrist_flex_l		wrist_dev_l		hand_finger_flex_l		
0.494167		1.422116		2.072603		84.683552		0.031159		1.502310		0.973567		36.415758		-0.974862		-3.794117		-57.762837		-22.517943		-2.169684		0.291372		39.656101		-9.507798		-7.482611		-35.083062		-29.682994		3.347928		16.600908		-47.320718		-3.006387		3.907957		14.981751		0.436011		-1.252366		17.274349		-41.051295		-4.929215		81.144744		118.580078		-7.451394		-14.411857		0.531298		11.910269		-31.761622		-5.883738		52.284136		105.274306		-20.420799		-8.157061		4.079075		
0.498359		1.456257		2.203531		84.727814		0.030208		1.490884		0.963989		36.123065		-0.967923		-3.942010		-56.428280		-22.688394		-1.331778		0.643465		39.130629		-9.467028		-7.622780		-34.489458		-29.942502		3.691468		16.521242		-47.061642		-2.881238		3.742747		14.343415		0.517071		-1.076429		14.980974		-41.525393		-5.483618		82.048940		117.852399		-7.657726		-14.458140		-0.124741		9.817503		-31.531675		-6.497791		52.445210		105.132807		-20.930458		-8.231389		3.619910		
0.502551		1.542804		2.231785		84.793255		0.029574		1.479030		0.954562		35.931685		-0.892948		-4.167955		-55.093986		-22.910356		-0.684295		0.958861		38.745480		-9.496899		-7.691956		-33.899117		-30.196548		4.055025		16.487926		-46.664697		-2.726173		3.628223		13.549558		0.576326		-0.938970		12.647932		-41.983459		-6.020897		82.942393		117.122959		-7.797248		-14.508071		-0.822106		7.734170		-31.401815		-6.923902		52.633161		104.974000		-21.311233		-8.261549		3.195490		
0.506742		1.673498		2.231986		84.836464		0.029236		1.466918		0.945092		35.730134		-0.737190		-4.413297		-53.722174		-23.137073		-0.149000		1.563905		38.336382		-9.612152		-7.817518		-33.240191		-30.348186		4.472691		16.594947		-46.200610		-2.576043		3.706778		12.682934		0.563682		-1.042243		10.040008		-42.493349		-6.753336		83.907306		115.920328		-7.549728		-14.458434		-2.364617		5.859977		-31.340261		-6.951857		52.760436		104.806456		-21.438984		-8.136504		2.571484		
0.510934		1.776909		2.246890		84.841349		0.028984		1.454672		0.935463		35.493097		-0.584210		-4.617374		-52.327371		-23.446647		0.287086		1.839816		37.927632		-9.742820		-8.036843		-32.647292		-30.623235		4.827468		16.634501		-45.739706		-2.473455		3.645747		11.812410		0.632317		-0.888754		7.651101		-42.847412		-7.330754		84.767235		115.348781		-7.497806		-14.595804		-3.283754		3.737149		-31.178939		-7.374885		52.988766		104.581734		-21.750297		-8.204148		2.195397		
0.515126		1.863375		2.340437		84.782674		0.028700		1.442386		0.925599		35.148277		-0.436088		-4.802106		-50.932099		-23.712636		0.728639		1.893972		37.385325		-9.883735		-8.383254		-32.032293		-30.856788		5.176359		16.649176		-45.327232		-2.401692		3.560156		10.876185		0.654441		-0.680249		5.340186		-43.134032		-7.835053		85.570315		114.935765		-7.593601		-14.818666		-3.884419		1.521229		-30.936743		-7.938164		53.266135		104.340533		-22.076289		-8.299498		2.038640		
0.519318		1.894125		2.467686		84.721268		0.028212		1.430041		0.915573		34.698781		-0.369695		-4.921766		-49.432666		-23.864755		1.214417		1.931768		36.712699		-9.979899		-8.867536		-31.310110		-30.949680		5.540851		16.700029		-44.941295		-2.357503		3.512160		10.010056		0.604958		-0.562899		2.920377		-43.549070		-8.377362		86.332652		114.251740		-7.564722		-15.025804		-4.743172		-0.566279		-30.658896		-8.375039		53.512236		104.116692		-22.304585		-8.341553		1.927438		
0.523510		1.897693		2.709332		84.562345		0.027649		1.417601		0.905437		34.150422		-0.348785		-5.051637		-48.000438		-23.989788		1.816145		1.878166		35.888752		-10.092625		-9.510720		-30.595367		-31.063515		5.913580		16.750232		-44.656838		-2.379433		3.542990		9.077788		0.522468		-0.436496		0.358528		-43.928521		-9.114197		87.242432		113.408922		-7.390629		-15.313863		-5.972276		-2.638567		-30.298331		-8.825235		53.785923		103.819320		-22.574987		-8.417964		1.816626		
0.527702		1.867782		2.876190		84.446482		0.027048		1.404875		0.895326		33.633762		-0.354223		-5.182202		-46.476778		-24.193404		2.248687		1.745324		35.179748		-10.147400		-10.165482		-29.907576		-31.241238		6.089524		16.726966		-44.248116		-2.387857		3.449787		7.956965		0.371542		-0.178507		-2.002360		-44.224625		-9.711648		87.970475		113.065952		-7.326346		-15.600924		-6.687515		-4.756665		-29.909027		-9.312017		54.025051		103.525362		-22.937976		-8.535695		1.723420		
0.531894		1.841909		2.970421		84.332810		0.026551		1.391775		0.885293		33.203328		-0.361212		-5.360960		-44.983375		-24.315753		2.703257		1.574414		34.523627		-10.203574		-10.807531		-29.142067		-31.358859		6.275177		16.687104		-43.767571		-2.391400		3.405106		6.933701		0.192320		0.057795		-4.421810		-44.509967		-10.388547		88.751197		112.845236		-7.300416		-15.920327		-7.339201		-6.892675		-29.589371		-9.673952		54.381967		103.235260		-23.230955		-8.663435		1.695523		
0.536086		1.813944		3.023999		84.193923		0.026116		1.378485		0.875207		32.777306		-0.372918		-5.586824		-43.448236		-24.378800		3.193817		1.351954		33.860773		-10.262636		-11.452645		-28.291855		-31.427730		6.446280		16.623632		-43.249277		-2.421044		3.421702		6.002599		0.009672		0.222538		-6.922177		-44.740378		-11.218652		89.526398		112.815589		-7.282209		-16.245842		-7.989443		-8.996524		-29.290267		-9.926348		54.786312		102.946810		-23.509947		-8.779722		1.727647		
0.540278		1.790124		3.046099		84.148606		0.025629		1.365039		0.864958		32.332315		-0.396047		-5.820036		-41.868818		-24.448107		3.631128		1.131366		33.231625		-10.277072		-12.087115		-27.405858		-31.447676		6.540985		16.550377		-42.666301		-2.398599		3.372256		4.999342		-0.199680		0.346484		-9.369892		-44.898117		-11.981943		90.204468		112.921368		-7.275095		-16.540756		-8.507331		-11.095226		-28.971232		-10.155546		55.188549		102.708596		-23.831705		-8.913893		1.764496		
0.544470		1.748699		3.263751		84.042940		0.025066		1.351748		0.854382		31.631742		-0.479340		-6.093402		-40.270936		-24.367055		4.442139		0.777171		32.301468		-10.287452		-12.935486		-26.429645		-31.393775		6.741037		16.387293		-42.310226		-2.425702		3.489173		4.149291		-0.327025		0.254454		-12.216406		-44.826492		-13.369638		91.125949		113.525503		-7.304797		-16.968973		-9.175941		-13.009647		-28.591173		-10.253722		55.575803		102.459308		-24.319491		-8.971670		1.914817		
0.548662		1.706608		3.396007		83.964816		0.024400		1.338310		0.843723		30.971618		-0.562401		-6.426057		-38.574706		-24.519694		4.855421		0.577785		31.441845		-10.239123		-13.658227		-25.380700		-31.340568		6.699732		16.281419		-41.790729		-2.425686		3.411259		2.949538		-0.457162		0.371441		-14.511093		-44.817676		-14.106080		91.686313		113.786815		-7.389448		-17.226450		-9.451507		-15.066902		-28.056912		-10.667920		55.936249		102.267242		-24.881352		-9.144587		1.888709		
0.552854		1.665295		3.645738		83.907918		0.023750		1.324872		0.832976		30.144461		-0.655302		-6.774016		-36.839278		-24.601813		5.369094		0.456472		30.413163		-10.167662		-14.475631		-24.255093		-31.210532		6.717199		16.196196		-41.411733		-2.426722		3.288116		1.878151		-0.533918		0.532441		-16.774824		-44.761367		-14.839545		92.292827		114.024210		-7.609167		-17.519544		-9.621857		-17.139363		-27.488009		-11.154118		56.360478		102.099315		-25.456612		-9.343709		1.805902		
0.557045		1.631746		3.878294		83.876947		0.023208		1.311213		0.822294		29.306737		-0.730778		-7.154089		-35.064437		-24.618928		5.839600		0.366678		29.403562		-10.084380		-15.244553		-23.102999		-30.956536		6.826278		16.133039		-41.022668		-2.413917		3.198288		0.858972		-0.651712		0.688235		-19.062245		-44.630746		-15.611663		92.893072		114.271134		-7.845654		-17.787229		-9.747343		-19.134291		-26.951232		-11.585313		56.810707		101.938705		-25.981343		-9.531096		1.712537		
